<svg width="39" height="50" viewBox="0 0 39 50" fill="none" xmlns="http://www.w3.org/2000/svg">
<path d="M31.6656 25.0884C30.725 20.1956 26.8796 16.35 22.0564 15.1873C23.4318 14.4988 24.5346 13.3661 25.186 11.9726C25.8375 10.5792 25.9994 9.00668 25.6457 7.50974C25.2919 6.01279 24.4432 4.6791 23.2369 3.72467C22.0307 2.77024 20.5375 2.25098 18.9993 2.25098C17.4612 2.25098 15.968 2.77024 14.7618 3.72467C13.5555 4.6791 12.7068 6.01279 12.353 7.50974C11.9993 9.00668 12.1612 10.5792 12.8127 11.9726C13.4641 13.3661 14.5668 14.4988 15.9423 15.1873C11.1197 16.3495 7.27369 20.1947 6.33437 25.0884C6.32025 25.1613 6.32105 25.2363 6.33671 25.3088C6.35238 25.3814 6.38259 25.4501 6.42552 25.5106C6.46845 25.5712 6.52322 25.6225 6.58651 25.6613C6.64979 25.7001 6.72029 25.7257 6.79375 25.7365C6.93194 25.7568 7.07264 25.7232 7.18668 25.6426C7.30073 25.5619 7.37935 25.4405 7.40625 25.3034C8.43744 19.9169 13.33 15.916 19 15.916C24.67 15.916 29.5626 19.9169 30.5937 25.3036C30.6206 25.4407 30.6993 25.5621 30.8133 25.6428C30.9274 25.7234 31.0681 25.7571 31.2062 25.7367C31.2797 25.7259 31.3502 25.7003 31.4135 25.6615C31.4769 25.6226 31.5316 25.5714 31.5746 25.5108C31.6175 25.4502 31.6477 25.3815 31.6634 25.3089C31.679 25.2363 31.6798 25.1613 31.6656 25.0884ZM13.2644 9.08659C13.2644 7.95219 13.6008 6.84327 14.231 5.90005C14.8612 4.95683 15.757 4.22168 16.8051 3.78756C17.8531 3.35345 19.0064 3.23986 20.119 3.46117C21.2316 3.68248 22.2536 4.22875 23.0557 5.03089C23.8578 5.83303 24.4041 6.85502 24.6254 7.96763C24.8467 9.08023 24.7331 10.2335 24.299 11.2815C23.8649 12.3296 23.1298 13.2254 22.1865 13.8556C21.2433 14.4858 20.1344 14.8222 19 14.8222C17.4793 14.8207 16.0213 14.2159 14.946 13.1406C13.8707 12.0653 13.2659 10.6073 13.2644 9.08659Z" fill="#2E3093"/>
<path d="M11.3291 45.1621H10.085V38.8867H8.5127V44.5332H7.2959V33.1582H8.5127V37.8203H10.085V32.9121H11.3291V45.1621ZM2.71582 40.9033C4.03288 40.8896 5.28613 40.7643 6.47559 40.5273L6.6123 41.6621C5.82389 41.8034 5.07194 41.9036 4.35645 41.9629C3.64551 42.0176 2.93001 42.0449 2.20996 42.0449H1.41699V34.3613H2.71582V40.9033ZM25.5732 40.1992H24.2744V37.0957H21.9912V36.0293H24.2744V32.9121H25.5732V40.1992ZM21.4717 40.541C22.3239 40.541 23.0599 40.6322 23.6797 40.8145C24.304 40.9967 24.7826 41.2611 25.1152 41.6074C25.4479 41.9538 25.6143 42.3685 25.6143 42.8516C25.6143 43.3346 25.4479 43.7471 25.1152 44.0889C24.7826 44.4352 24.3063 44.6995 23.6865 44.8818C23.0667 45.0641 22.3285 45.1576 21.4717 45.1621C20.6149 45.1576 19.8743 45.0641 19.25 44.8818C18.6302 44.6995 18.154 44.4352 17.8213 44.0889C17.4886 43.7471 17.3245 43.3346 17.3291 42.8516C17.3245 42.3685 17.4886 41.9538 17.8213 41.6074C18.154 41.2611 18.6302 40.9967 19.25 40.8145C19.8743 40.6322 20.6149 40.541 21.4717 40.541ZM21.4717 41.5527C20.5693 41.5527 19.8675 41.6667 19.3662 41.8945C18.8649 42.1178 18.6143 42.4368 18.6143 42.8516C18.6143 43.125 18.7282 43.3597 18.9561 43.5557C19.1839 43.7471 19.512 43.8929 19.9404 43.9932C20.3688 44.0934 20.8792 44.1413 21.4717 44.1367C22.0641 44.1413 22.5745 44.0934 23.0029 43.9932C23.4313 43.8929 23.7594 43.7471 23.9873 43.5557C24.2152 43.3597 24.3291 43.125 24.3291 42.8516C24.3291 42.4368 24.0785 42.1178 23.5771 41.8945C23.0758 41.6667 22.374 41.5527 21.4717 41.5527ZM19.749 35.0723C19.749 35.5918 19.8675 36.0954 20.1045 36.583C20.3415 37.0706 20.6833 37.5059 21.1299 37.8887C21.5765 38.2669 22.1006 38.5586 22.7021 38.7637L22.0322 39.7891C21.3577 39.5521 20.7699 39.2035 20.2686 38.7432C19.7718 38.2783 19.3867 37.7383 19.1133 37.123C18.8444 37.8203 18.4456 38.431 17.917 38.9551C17.3883 39.4746 16.764 39.8665 16.0439 40.1309L15.3604 39.0918C15.9801 38.8776 16.5202 38.5654 16.9805 38.1553C17.4453 37.7406 17.8008 37.2666 18.0469 36.7334C18.2975 36.2002 18.4229 35.651 18.4229 35.0859V34.8125H15.7705V33.7598H22.374V34.8125H19.749V35.0723ZM38.1709 43.6445H26.96V42.5645H31.8955V40.0488H28.2451V33.7461H29.5439V35.8516H35.5596V33.7461H36.8447V40.0488H33.1807V42.5645H38.1709V43.6445ZM35.5596 38.9961V36.9043H29.5439V38.9961H35.5596Z" fill="#2E3093"/>
</svg>
