<svg width="36" height="50" viewBox="0 0 36 50" fill="none" xmlns="http://www.w3.org/2000/svg">
<g clip-path="url(#clip0_161_1249)">
<path d="M26.7953 21.7953C24.4492 24.1465 21.3211 25.4414 18 25.4414C14.6789 25.4414 11.5508 24.1465 9.20469 21.7953C6.85859 19.4441 5.55859 16.3211 5.55859 13C5.55859 9.67891 6.85352 6.55078 9.20469 4.20469C11.5559 1.85859 14.6789 0.558594 18 0.558594C21.3211 0.558594 24.4492 1.85352 26.7953 4.20469C29.1414 6.55586 30.4414 9.67891 30.4414 13C30.4414 16.3211 29.1465 19.4492 26.7953 21.7953ZM29.3141 13.5586H24.4898C24.4441 15.4781 24.175 17.3266 23.7027 18.9668C24.6219 19.4391 25.4801 20.0332 26.2672 20.734C28.0445 18.8348 29.177 16.3262 29.3141 13.5586ZM18.5586 12.4414H23.3777C23.3371 10.6742 23.0934 8.9832 22.6719 7.46992C21.3719 7.99297 19.9855 8.29766 18.5586 8.36367V12.4414ZM25.4648 21.5109C24.8148 20.9371 24.1039 20.4496 23.3523 20.0434C23.1594 20.5816 22.941 21.0895 22.6973 21.5668C22.2148 22.5215 21.6664 23.3035 21.0621 23.9027C22.7125 23.4406 24.2105 22.6129 25.4648 21.5109ZM18.5586 24.1516C19.7215 23.8926 20.8184 22.8211 21.702 21.0742C21.9406 20.602 22.1539 20.0992 22.3418 19.566C21.1484 19.0734 19.8738 18.784 18.5586 18.718V24.1516ZM22.677 18.4945C23.0934 16.9914 23.332 15.3105 23.3727 13.5535H18.5586V17.5957C19.9906 17.6617 21.377 17.9715 22.677 18.4945ZM17.4414 13.5586H12.6223C12.6629 15.3156 12.9016 16.9965 13.318 18.4996C14.618 17.9715 16.0094 17.6668 17.4363 17.6059V13.5586H17.4414ZM17.4465 24.1516V18.718C16.1312 18.784 14.8516 19.0734 13.6633 19.566C13.8512 20.0992 14.0645 20.602 14.3031 21.0742C15.1867 22.8211 16.2836 23.8926 17.4465 24.1516ZM14.943 23.9027C14.3387 23.3035 13.7902 22.5164 13.3078 21.5668C13.0691 21.0895 12.8508 20.5816 12.6527 20.0434C11.9012 20.4496 11.1953 20.9371 10.5402 21.5109C11.7945 22.6129 13.2926 23.4406 14.943 23.9027ZM9.73789 20.734C10.525 20.0332 11.3832 19.4441 12.3023 18.9668C11.8301 17.3215 11.5559 15.4781 11.5152 13.5586H6.69102C6.82812 16.3262 7.96055 18.8348 9.73789 20.734ZM6.69102 12.4414H11.5152C11.5609 10.5066 11.8352 8.65313 12.3125 7.00274C11.3984 6.53047 10.5402 5.94649 9.7582 5.2457C7.96562 7.15 6.82812 9.66367 6.69102 12.4414ZM10.5605 4.46875C11.2105 5.0375 11.9164 5.525 12.6629 5.92617C12.8559 5.40313 13.0691 4.90039 13.3078 4.4332C13.7902 3.47852 14.3387 2.69649 14.943 2.09219C13.3027 2.5543 11.8098 3.37695 10.5605 4.46875ZM17.4465 1.84844C16.2836 2.10742 15.1867 3.17891 14.3031 4.92578C14.0695 5.38789 13.8613 5.88047 13.6734 6.40352C14.8617 6.8961 16.1363 7.18555 17.4465 7.24648V1.84844ZM13.3332 7.46992C12.9117 8.9832 12.668 10.6742 12.6273 12.4414H17.4465V8.36367C16.0195 8.30273 14.6332 7.99805 13.3332 7.46992ZM18.5637 1.84844V7.24648C19.8738 7.18047 21.1484 6.8961 22.3367 6.40352C22.1488 5.88047 21.9406 5.38789 21.707 4.92578C20.8234 3.17891 19.7266 2.10742 18.5637 1.84844ZM21.0672 2.09727C21.6715 2.69649 22.2199 3.48359 22.7023 4.43828C22.941 4.90547 23.1543 5.4082 23.3473 5.93125C24.0938 5.53008 24.7996 5.04258 25.4496 4.47383C24.2004 3.37695 22.7074 2.5543 21.0672 2.09727ZM26.257 5.2457C25.475 5.94141 24.6168 6.53047 23.7027 7.00274C24.1801 8.65313 24.4543 10.5117 24.5 12.4414H29.3242C29.182 9.66367 28.0445 7.15 26.257 5.2457Z" fill="#76828F"/>
</g>
<path d="M10.6182 34.5391C10.6182 35.3229 10.5977 36.0111 10.5566 36.6035C10.5202 37.196 10.4268 37.8613 10.2764 38.5996L8.99121 38.4902C9.12793 37.8385 9.21908 37.2393 9.26465 36.6924L1.97754 37.0273L1.7998 35.9336L9.31934 35.7285C9.32845 35.4505 9.33301 35.054 9.33301 34.5391V34.5117H2.11426V33.459H10.6182V34.5391ZM11.958 40.3906H0.81543V39.3516H5.23145V37.6289H6.54395V39.3516H11.958V40.3906ZM10.8779 44.9707H2.19629V41.334H3.49512V43.918H10.8779V44.9707ZM22.8467 42.0859H21.6162V32.9258H22.8467V42.0859ZM20.4404 41.7852H19.21V37.3965H17.6924V36.3438H19.21V33.1582H20.4404V41.7852ZM23.2021 44.9023H14.7803V41.0742H16.0928V43.8496H23.2021V44.9023ZM17.6104 34.9492H14.1924V36.4805H17.1318V37.4922H14.1924V39.0918C15.0811 39.0872 15.8125 39.0667 16.3867 39.0303C16.9655 38.9893 17.5465 38.9095 18.1299 38.791L18.2529 39.8301C17.5785 39.9622 16.9154 40.0511 16.2637 40.0967C15.612 40.1377 14.7712 40.1582 13.7412 40.1582H12.9482V33.8965H17.6104V34.9492ZM35.2119 43.6309H24.001V42.5645H35.2119V43.6309ZM34.1729 35.8516H30.249C30.2673 36.4577 30.4632 37.0228 30.8369 37.5469C31.2152 38.0664 31.7301 38.5085 32.3818 38.873C33.0381 39.2331 33.7809 39.4792 34.6104 39.6113L34.0908 40.6504C33.0654 40.4681 32.1562 40.1263 31.3633 39.625C30.5703 39.1191 29.9779 38.4948 29.5859 37.752C29.194 38.4902 28.6016 39.1123 27.8086 39.6182C27.0202 40.124 26.1156 40.4681 25.0947 40.6504L24.5889 39.6113C25.4092 39.4792 26.1452 39.2331 26.7969 38.873C27.4486 38.5085 27.9613 38.0664 28.335 37.5469C28.7132 37.0228 28.9137 36.4577 28.9365 35.8516H25.0127V34.7988H28.9502V33.1719H30.2354V34.7988H34.1729V35.8516Z" fill="#76828F"/>
<defs>
<clipPath id="clip0_161_1249">
<rect width="26" height="26" fill="white" transform="matrix(1 0 0 -1 5 26)"/>
</clipPath>
</defs>
</svg>
