<svg width="339" height="339" viewBox="0 0 339 339" fill="none" xmlns="http://www.w3.org/2000/svg">
<rect width="339" height="339" rx="8" fill="white"/>
<path d="M134.914 189.332C134.914 189.93 135.035 190.527 135.277 191.125C135.52 191.719 135.846 192.25 136.256 192.719C136.67 193.188 137.121 193.543 137.609 193.785L137.047 194.523C136.473 194.223 135.957 193.781 135.5 193.199C135.047 192.617 134.705 191.965 134.475 191.242C134.244 192.012 133.896 192.707 133.432 193.328C132.967 193.945 132.441 194.41 131.855 194.723L131.27 193.984C131.773 193.738 132.232 193.369 132.646 192.877C133.064 192.381 133.395 191.822 133.637 191.201C133.883 190.576 134.008 189.953 134.012 189.332V187.434H134.914V189.332ZM139.484 190.762H141.23V191.559H139.484V196.949H138.57V186.531H139.484V190.762ZM145.243 188.77C145.243 189.23 145.356 189.674 145.583 190.1C145.809 190.521 146.126 190.893 146.532 191.213C146.938 191.529 147.399 191.77 147.915 191.934L147.446 192.672C146.837 192.465 146.302 192.156 145.841 191.746C145.38 191.336 145.032 190.855 144.798 190.305C144.571 190.898 144.223 191.42 143.755 191.869C143.29 192.318 142.747 192.656 142.126 192.883L141.645 192.145C142.161 191.961 142.622 191.697 143.028 191.354C143.434 191.01 143.751 190.615 143.977 190.17C144.204 189.721 144.317 189.254 144.317 188.77V188.16H141.88V187.41H147.645V188.16H145.243V188.77ZM150.095 194.184H149.18V186.543H150.095V194.184ZM150.423 196.727H143.368V193.457H144.282V195.953H150.423V196.727ZM157.147 187.023C157.608 187.02 158.028 187.102 158.407 187.27C158.786 187.434 159.096 187.668 159.338 187.973C159.584 188.277 159.741 188.629 159.807 189.027H161.987V186.531H162.913V192.121H161.987V189.789H159.813C159.754 190.195 159.602 190.555 159.356 190.867C159.114 191.176 158.801 191.416 158.418 191.588C158.036 191.756 157.612 191.84 157.147 191.84C156.623 191.84 156.157 191.738 155.746 191.535C155.336 191.332 155.016 191.047 154.786 190.68C154.555 190.312 154.44 189.895 154.44 189.426C154.44 188.957 154.555 188.541 154.786 188.178C155.016 187.811 155.336 187.525 155.746 187.322C156.161 187.119 156.627 187.02 157.147 187.023ZM157.147 187.809C156.795 187.805 156.481 187.871 156.204 188.008C155.926 188.145 155.709 188.336 155.553 188.582C155.397 188.828 155.319 189.109 155.319 189.426C155.319 189.738 155.397 190.02 155.553 190.27C155.709 190.52 155.926 190.715 156.204 190.855C156.481 190.996 156.795 191.066 157.147 191.066C157.495 191.066 157.805 190.996 158.079 190.855C158.352 190.715 158.565 190.52 158.717 190.27C158.873 190.02 158.952 189.738 158.952 189.426C158.952 189.109 158.873 188.828 158.717 188.582C158.565 188.336 158.352 188.145 158.079 188.008C157.805 187.871 157.495 187.805 157.147 187.809ZM157.123 193.973H161.987V192.648H162.913V196.809H156.198V192.648H157.123V193.973ZM161.987 196.059V194.711H157.123V196.059H161.987ZM173.886 195.66H164.347V194.887H168.636V192.918H165.542V189.707H171.777V188.066H165.519V187.305H172.679V190.457H166.456V192.156H172.925V192.918H169.538V194.887H173.886V195.66ZM182.832 192.309H175.637V187.504H182.727V188.266H176.551V191.547H182.832V192.309ZM183.957 195.531H174.418V194.758H183.957V195.531ZM195.263 190.832H197.009V191.594H195.263V196.949H194.349V186.531H195.263V190.832ZM193.341 188.969H187.142V188.207H189.826V186.66H190.74V188.207H193.341V188.969ZM190.295 189.836C190.783 189.836 191.22 189.938 191.607 190.141C191.994 190.344 192.296 190.627 192.515 190.99C192.734 191.354 192.845 191.766 192.849 192.227C192.845 192.688 192.734 193.1 192.515 193.463C192.296 193.826 191.994 194.109 191.607 194.312C191.22 194.516 190.783 194.617 190.295 194.617C189.802 194.617 189.361 194.516 188.97 194.312C188.584 194.109 188.281 193.826 188.062 193.463C187.843 193.1 187.736 192.688 187.74 192.227C187.736 191.766 187.843 191.354 188.062 190.99C188.281 190.627 188.584 190.344 188.97 190.141C189.361 189.938 189.802 189.836 190.295 189.836ZM190.295 190.609C189.974 190.609 189.685 190.68 189.427 190.82C189.173 190.957 188.974 191.148 188.83 191.395C188.685 191.641 188.615 191.918 188.619 192.227C188.615 192.539 188.685 192.818 188.83 193.064C188.974 193.307 189.173 193.496 189.427 193.633C189.685 193.77 189.974 193.836 190.295 193.832C190.611 193.836 190.896 193.77 191.15 193.633C191.404 193.496 191.603 193.307 191.748 193.064C191.892 192.818 191.966 192.539 191.97 192.227C191.966 191.918 191.892 191.641 191.748 191.395C191.603 191.148 191.404 190.957 191.15 190.82C190.896 190.68 190.611 190.609 190.295 190.609ZM205.885 196.949H204.959V186.531H205.885V196.949ZM202.803 187.668C202.795 189.242 202.397 190.656 201.608 191.91C200.819 193.16 199.584 194.188 197.905 194.992L197.401 194.242C198.791 193.582 199.856 192.762 200.594 191.781C201.336 190.801 201.76 189.68 201.866 188.418H197.881V187.668H202.803Z" fill="#787878"/>
<g clip-path="url(#clip0_216_157)">
<path d="M169 137C157.96 137 149 145.96 149 157C149 168.04 157.96 177 169 177C180.04 177 189 168.04 189 157C189 145.96 180.04 137 169 137ZM177 159H171V165C171 166.109 170.109 167 169 167C167.891 167 167 166.109 167 165V159H161C159.891 159 159 158.109 159 157C159 155.891 159.891 155 161 155H167V149C167 147.891 167.891 147 169 147C170.109 147 171 147.891 171 149V155H177C178.109 155 179 155.891 179 157C179 158.109 178.109 159 177 159Z" fill="#BFBFBF"/>
</g>
<defs>
<clipPath id="clip0_216_157">
<rect width="40" height="40" fill="white" transform="translate(149 137)"/>
</clipPath>
</defs>
</svg>
