<svg width="24" height="50" viewBox="0 0 24 50" fill="none" xmlns="http://www.w3.org/2000/svg">
<path d="M8.74996 18.291C8.4278 18.291 8.16663 18.5522 8.16663 18.8743C8.16663 19.1965 8.4278 19.4577 8.74996 19.4577H14.5833C14.9054 19.4577 15.1666 19.1965 15.1666 18.8743C15.1666 18.5522 14.9054 18.291 14.5833 18.291H8.74996Z" fill="#76828F"/>
<path fill-rule="evenodd" clip-rule="evenodd" d="M14.1969 0.878395C12.7134 -0.292798 10.6199 -0.292798 9.13645 0.878395L1.55311 6.86524C0.572262 7.6396 0 8.82048 0 10.0702V19.4574C0 21.7126 1.82817 23.5407 4.08333 23.5407H19.25C21.5052 23.5407 23.3333 21.7126 23.3333 19.4574V10.0702C23.3333 8.82048 22.7611 7.6396 21.7803 6.86524L14.1969 0.878395ZM9.85938 1.79409C10.9191 0.957518 12.4143 0.957518 13.474 1.79409L21.0573 7.78093C21.7579 8.33405 22.1667 9.17754 22.1667 10.0702V19.4574C22.1667 21.0682 20.8608 22.3741 19.25 22.3741H4.08333C2.47251 22.3741 1.16667 21.0682 1.16667 19.4574V10.0702C1.16667 9.17754 1.57542 8.33405 2.27604 7.78093L9.85938 1.79409Z" fill="#76828F"/>
<path d="M16.3708 44.8857H7.90796V41.3447H16.3708V44.8857ZM9.19312 43.8877H15.113V42.3428H9.19312V43.8877ZM17.1091 34.7549H7.14233V33.7568H11.5037V32.6221H12.8025V33.7568H17.1091V34.7549ZM12.1462 35.1924C13.4496 35.1924 14.4454 35.3405 15.1335 35.6367C15.8217 35.9284 16.1658 36.359 16.1658 36.9287C16.1658 37.4482 15.8787 37.8538 15.3044 38.1455C14.7302 38.4326 13.8962 38.6012 12.8025 38.6514V39.4854H17.738V40.5107H6.56812V39.4854H11.5037V38.6514C10.4099 38.6012 9.57137 38.4326 8.98804 38.1455C8.40926 37.8538 8.12215 37.4482 8.12671 36.9287C8.12215 36.359 8.46623 35.9284 9.15894 35.6367C9.85164 35.3405 10.8474 35.1924 12.1462 35.1924ZM12.1462 36.0811C10.3871 36.0947 9.50757 36.3773 9.50757 36.9287C9.50757 37.2021 9.73315 37.4118 10.1843 37.5576C10.6401 37.7035 11.294 37.7764 12.1462 37.7764C13.003 37.7764 13.657 37.7035 14.1082 37.5576C14.5593 37.4118 14.7849 37.2021 14.7849 36.9287C14.7849 36.3773 13.9054 36.0947 12.1462 36.0811Z" fill="#76828F"/>
</svg>
