<svg width="29" height="50" viewBox="0 0 29 50" fill="none" xmlns="http://www.w3.org/2000/svg">
<g clip-path="url(#clip0_161_1259)">
<path d="M14.8763 27.9996C14.7235 27.9996 14.5742 27.9389 14.4633 27.8293C14.3257 27.6916 14.265 27.4933 14.3035 27.3031L15.1283 23.1789C15.1517 23.0646 15.2053 22.9608 15.2882 22.8803L24.3625 13.8059C25.0438 13.1246 26.1557 13.1246 26.837 13.8059L28.4867 15.4556C29.1692 16.1381 29.1692 17.2476 28.4867 17.9301L19.4123 27.0044C19.3318 27.0861 19.228 27.1409 19.1137 27.1643L14.9895 27.9891C14.9522 27.9961 14.9137 27.9996 14.8763 27.9996ZM16.239 23.5791L15.6207 26.6719L18.7135 26.0536L27.663 17.1041C27.8905 16.8766 27.8905 16.5068 27.663 16.2793L26.0133 14.6296C25.7858 14.4021 25.416 14.4021 25.1885 14.6296L16.239 23.5791Z" fill="#76828F"/>
<path d="M12.0833 24.5H3.91667C2.30783 24.5 1 23.1922 1 21.5833V6.41667C1 4.80783 2.30783 3.5 3.91667 3.5H6.25C6.572 3.5 6.83333 3.76133 6.83333 4.08333C6.83333 4.40533 6.572 4.66667 6.25 4.66667H3.91667C2.95183 4.66667 2.16667 5.45183 2.16667 6.41667V21.5833C2.16667 22.5482 2.95183 23.3333 3.91667 23.3333H12.0833C12.4053 23.3333 12.6667 23.5947 12.6667 23.9167C12.6667 24.2387 12.4053 24.5 12.0833 24.5Z" fill="#76828F"/>
<path d="M20.25 14C19.928 14 19.6667 13.7387 19.6667 13.4167V6.41667C19.6667 5.45183 18.8815 4.66667 17.9167 4.66667H15.5833C15.2613 4.66667 15 4.40533 15 4.08333C15 3.76133 15.2613 3.5 15.5833 3.5H17.9167C19.5255 3.5 20.8333 4.80783 20.8333 6.41667V13.4167C20.8333 13.7387 20.572 14 20.25 14Z" fill="#76828F"/>
<path d="M14.4166 7H7.41663C6.45179 7 5.66663 6.21483 5.66663 5.25V2.91667C5.66663 2.59467 5.92796 2.33333 6.24996 2.33333H8.05829C8.32896 1.00333 9.50846 0 10.9166 0C12.3248 0 13.5043 1.00333 13.775 2.33333H15.5833C15.9053 2.33333 16.1666 2.59467 16.1666 2.91667V5.25C16.1666 6.21483 15.3815 7 14.4166 7ZM6.83329 3.5V5.25C6.83329 5.57083 7.09579 5.83333 7.41663 5.83333H14.4166C14.7375 5.83333 15 5.57083 15 5.25V3.5H13.25C12.928 3.5 12.6666 3.23867 12.6666 2.91667C12.6666 1.95183 11.8815 1.16667 10.9166 1.16667C9.95179 1.16667 9.16663 1.95183 9.16663 2.91667C9.16663 3.23867 8.90529 3.5 8.58329 3.5H6.83329Z" fill="#76828F"/>
<path d="M16.75 10.4997H5.08333C4.76133 10.4997 4.5 10.2383 4.5 9.91634C4.5 9.59434 4.76133 9.33301 5.08333 9.33301H16.75C17.072 9.33301 17.3333 9.59434 17.3333 9.91634C17.3333 10.2383 17.072 10.4997 16.75 10.4997Z" fill="#76828F"/>
<path d="M16.75 13.9997H5.08333C4.76133 13.9997 4.5 13.7383 4.5 13.4163C4.5 13.0943 4.76133 12.833 5.08333 12.833H16.75C17.072 12.833 17.3333 13.0943 17.3333 13.4163C17.3333 13.7383 17.072 13.9997 16.75 13.9997Z" fill="#76828F"/>
<path d="M16.75 17.4997H5.08333C4.76133 17.4997 4.5 17.2383 4.5 16.9163C4.5 16.5943 4.76133 16.333 5.08333 16.333H16.75C17.072 16.333 17.3333 16.5943 17.3333 16.9163C17.3333 17.2383 17.072 17.4997 16.75 17.4997Z" fill="#76828F"/>
</g>
<path d="M10.7871 45.1621H9.47461V32.9121H10.7871V45.1621ZM7.13672 34.2246C7.13672 36.1204 6.68327 37.8066 5.77637 39.2832C4.87402 40.7552 3.41797 41.972 1.4082 42.9336L0.724609 41.8809C2.33333 41.1152 3.55241 40.1833 4.38184 39.085C5.21582 37.9867 5.69661 36.7129 5.82422 35.2637H1.3125V34.2246H7.13672ZM23.3984 40.6504H12.1875V39.5977H17.1504V38.4355H13.623V35.3184H20.6914V34.2246H13.5957V33.1992H21.9902V36.2754H14.9082V37.4238H22.2363V38.4355H18.4355V39.5977H23.3984V40.6504ZM22.0586 45.0664H20.7461V42.5508H13.4453V41.5117H22.0586V45.0664Z" fill="#76828F"/>
<defs>
<clipPath id="clip0_161_1259">
<rect width="28" height="28" fill="white" transform="translate(1)"/>
</clipPath>
</defs>
</svg>
