<svg width="18" height="18" viewBox="0 0 18 18" fill="none" xmlns="http://www.w3.org/2000/svg">
<rect x="0.5" y="0.5" width="17" height="17" stroke="#D7D7D7"/>
<path fill-rule="evenodd" clip-rule="evenodd" d="M5.17321 7.4825C4.82461 7.13389 4.35181 6.93806 3.8588 6.93806C3.36579 6.93806 2.89299 7.13392 2.54439 7.48255C1.81852 8.20845 1.81855 9.38535 2.54441 10.1112C3.59436 11.1612 5.1666 12.7335 6.21657 13.7835C6.56515 14.1321 7.03795 14.328 7.53096 14.328C8.02394 14.328 8.49677 14.1322 8.84534 13.7836L15.4556 7.17338C16.1814 6.44754 16.1815 5.27072 15.4557 4.54477L15.4555 4.54458C15.1069 4.19592 14.6341 4.00003 14.1411 4C13.6481 3.99997 13.1752 4.19581 12.8266 4.54444L7.68542 9.68561C7.64443 9.7266 7.58884 9.74965 7.53088 9.74965C7.47291 9.74965 7.41732 9.7266 7.37633 9.68561L5.17321 7.4825Z" fill="#4892EC"/>
<path fill-rule="evenodd" clip-rule="evenodd" d="M13.8402 4.0245C14.2217 4.08704 14.5771 4.26759 14.854 4.54458L14.8542 4.54477C15.5799 5.27072 15.5799 6.44754 14.854 7.17338L8.2438 13.7836C7.96692 14.0605 7.61167 14.241 7.23022 14.3035C7.32902 14.3197 7.42956 14.328 7.53098 14.328C8.02396 14.328 8.49679 14.1322 8.84537 13.7836L15.4556 7.17338C16.1814 6.44754 16.1815 5.27072 15.4557 4.54477L15.4556 4.54458C15.1069 4.19592 14.6341 4.00003 14.1411 4C14.0397 4 13.939 4.00829 13.8402 4.0245Z" fill="#4892EC"/>
</svg>
