<svg width="12" height="16" viewBox="0 0 12 16" fill="none" xmlns="http://www.w3.org/2000/svg">
<path d="M0.563402 6.86171C0.662532 6.77943 0.777315 6.71086 0.892098 6.65143L8.65558 0.452571C9.4121 -0.150857 10.6434 -0.150857 11.3999 0.452571C12.1564 1.056 12.1564 2.03886 11.3999 2.64229L4.71645 7.98171L11.4364 13.3486C12.193 13.952 12.193 14.9349 11.4364 15.5383C11.0556 15.84 10.5599 15.9909 10.0643 15.9909C9.56862 15.9909 9.07297 15.84 8.6921 15.5383L0.892098 9.31657C0.777315 9.25714 0.662532 9.18857 0.563402 9.10629C0.177315 8.8 -0.0105112 8.39314 -7.6382e-05 7.98629C-0.0105112 7.57943 0.177315 7.17257 0.563402 6.86171Z" fill="#DFDFDF"/>
</svg>
