<?xml version="1.0" standalone="no"?>
<!DOCTYPE svg PUBLIC "-//W3C//DTD SVG 20010904//EN"
 "http://www.w3.org/TR/2001/REC-SVG-20010904/DTD/svg10.dtd">
<svg version="1.0" xmlns="http://www.w3.org/2000/svg"
 width="73.000000pt" height="73.000000pt" viewBox="0 0 73.000000 73.000000"
 preserveAspectRatio="xMidYMid meet">

<g transform="translate(0.000000,73.000000) scale(0.100000,-0.100000)"
fill="#000000" stroke="none">
<path d="M275 676 c-61 -19 -102 -43 -146 -85 -95 -93 -123 -247 -66 -363 43
-88 131 -157 222 -174 34 -6 38 -5 28 7 -10 12 -8 15 8 15 10 0 19 -5 19 -11
0 -6 3 -6 8 1 4 6 14 14 22 17 8 3 -1 6 -20 6 -201 4 -327 239 -221 412 95
156 280 187 421 70 20 -16 45 -47 55 -70 22 -46 50 -52 50 -11 0 14 -5 24 -11
23 -7 -1 -10 5 -7 15 4 18 -74 105 -87 97 -4 -3 -10 1 -13 9 -9 22 -112 56
-170 55 -29 0 -70 -6 -92 -13z"/>
<path d="M246 533 c-6 -14 -5 -15 5 -6 7 7 10 15 7 18 -3 3 -9 -2 -12 -12z"/>
<path d="M450 521 c0 -5 5 -13 10 -16 6 -3 10 -2 10 4 0 5 -4 13 -10 16 -5 3
-10 2 -10 -4z"/>
<path d="M215 438 c-23 -13 -35 -28 -34 -43 0 -5 3 -4 6 3 2 6 9 12 14 12 6 0
6 -8 -1 -19 -5 -11 -7 -26 -4 -35 9 -22 32 -8 27 17 -2 12 2 31 11 42 14 19
15 19 22 -9 5 -21 3 -31 -6 -34 -17 -6 45 -32 76 -32 12 0 26 -4 29 -10 3 -5
-1 -10 -9 -10 -18 0 -23 -55 -6 -65 9 -6 12 0 14 34 1 16 56 35 56 20 0 -5 11
-9 24 -9 16 0 26 -8 31 -22 12 -36 12 -37 -20 -58 l-30 -20 37 0 c20 0 40 5
43 10 4 6 11 8 16 5 5 -4 9 -1 9 4 0 6 -4 11 -9 11 -21 0 -18 31 6 55 19 18
21 24 8 19 -13 -5 -16 -3 -13 7 3 8 -10 29 -30 47 -39 36 -83 42 -104 15 -16
-22 -33 -26 -76 -18 -28 5 -31 9 -21 21 9 11 9 21 1 39 -8 18 -8 25 1 29 7 2
-1 5 -18 5 -16 0 -39 -5 -50 -11z"/>
<path d="M321 406 c12 -20 23 -36 25 -36 7 0 -25 58 -36 65 -5 3 -1 -10 11
-29z"/>
<path d="M640 369 c0 -75 -33 -150 -89 -202 -27 -25 -46 -49 -42 -53 3 -4 1
-4 -6 -1 -6 4 -21 3 -33 -1 -21 -8 -21 -8 4 -22 22 -11 30 -11 50 0 93 49 156
153 156 255 0 54 -3 63 -20 68 -18 5 -20 0 -20 -44z"/>
<path d="M171 364 c0 -11 3 -14 6 -6 3 7 2 16 -1 19 -3 4 -6 -2 -5 -13z"/>
<path d="M270 309 c0 -5 5 -7 10 -4 6 3 10 8 10 11 0 2 -4 4 -10 4 -5 0 -10
-5 -10 -11z"/>
<path d="M165 200 c3 -5 10 -10 16 -10 5 0 9 5 9 10 0 6 -7 10 -16 10 -8 0
-12 -4 -9 -10z"/>
<path d="M230 166 c0 -9 5 -16 10 -16 6 0 10 4 10 9 0 6 -4 13 -10 16 -5 3
-10 -1 -10 -9z"/>
<path d="M360 130 c0 -5 5 -10 11 -10 5 0 7 5 4 10 -3 6 -8 10 -11 10 -2 0 -4
-4 -4 -10z"/>
</g>
</svg>
