<svg width="32" height="32" viewBox="0 0 32 32" fill="none" xmlns="http://www.w3.org/2000/svg">
<path d="M24.1937 17.4072H23.3695C23.1104 17.4072 22.9004 17.6172 22.9004 17.8763C22.9005 18.1355 23.1105 18.3455 23.3695 18.3455H24.1937C24.4528 18.3455 24.6628 18.1355 24.6628 17.8763C24.6628 17.6172 24.4528 17.4072 24.1937 17.4072Z" fill="black"/>
<path d="M31.9985 14.7379C31.9954 14.6589 31.9864 14.58 31.9711 14.5028L30.9201 9.18357C30.92 9.18338 30.9199 9.18319 30.9199 9.183L30.7113 8.12719C30.5712 7.41807 29.9448 6.90332 29.2219 6.90332H1.52256C0.682999 6.90326 0 7.58632 0 8.42588V20.963C0 21.8026 0.682999 22.4856 1.52256 22.4856H3.00849C3.23506 23.9623 4.51412 25.0969 6.05318 25.0969C7.59224 25.0969 8.8713 23.9624 9.09786 22.4856H10.306C10.565 22.4856 10.7751 22.2756 10.7751 22.0165C10.7751 21.7574 10.5651 21.5474 10.306 21.5474H9.0978C8.87123 20.0707 7.59217 18.9361 6.05311 18.9361C4.51405 18.9361 3.23499 20.0707 3.00843 21.5474H1.52256C1.20031 21.5474 0.938186 21.2852 0.938186 20.963V8.42588C0.938186 8.10363 1.20031 7.84144 1.52256 7.84144H29.2219C29.498 7.84144 29.7373 8.03807 29.7909 8.30901L29.8889 8.80538H23.7296C23.2723 8.80538 22.9003 9.17738 22.9003 9.63463V14.6943C22.9003 15.1703 23.1282 15.6219 23.5099 15.9022C24.4287 16.5772 26.483 17.4113 31.0617 17.6178V20.7659C31.0617 21.1969 30.7111 21.5475 30.2801 21.5475H28.9914C28.7648 20.0709 27.4858 18.9362 25.9466 18.9362C24.4076 18.9362 23.1286 20.0708 22.902 21.5475H12.4888C12.2297 21.5475 12.0197 21.7575 12.0197 22.0166C12.0197 22.2757 12.2297 22.4857 12.4888 22.4857H22.9021C23.1286 23.9624 24.4077 25.097 25.9468 25.097C27.4859 25.097 28.7649 23.9625 28.9915 22.4857H30.2802C31.2285 22.4857 32 21.7142 32 20.7659V14.7972V14.7972C31.9999 14.7773 31.9993 14.7576 31.9985 14.7379ZM6.05318 19.8744C7.23436 19.8744 8.1953 20.8354 8.1953 22.0165C8.1953 23.1977 7.23436 24.1587 6.05318 24.1587C4.87199 24.1587 3.91106 23.1977 3.91106 22.0165C3.91106 20.8354 4.87199 19.8744 6.05318 19.8744ZM25.9468 24.1587C24.7656 24.1587 23.8046 23.1977 23.8046 22.0165C23.8046 20.8353 24.7656 19.8744 25.9468 19.8744C27.1279 19.8744 28.0889 20.8353 28.0889 22.0165C28.0889 23.1977 27.1279 24.1587 25.9468 24.1587ZM23.8386 14.6943V9.74363H30.0743L31.0507 14.6849C31.0524 14.6937 31.0533 14.7027 31.0546 14.7117C31.0585 14.7377 31.061 14.7641 31.0613 14.7904C31.0613 14.7927 31.0616 14.7949 31.0616 14.7972V16.6786C26.5177 16.4691 24.7316 15.6355 24.0654 15.1461C23.9234 15.0417 23.8386 14.8729 23.8386 14.6943Z" fill="black"/>
<path d="M10.6773 8.80469H2.82485C2.41228 8.80469 2.07666 9.14031 2.07666 9.55287V14.8316C2.07666 15.2442 2.41228 15.5798 2.82485 15.5798H10.6773C11.0899 15.5798 11.4255 15.2442 11.4255 14.8316V9.55287C11.4255 9.14031 11.0899 8.80469 10.6773 8.80469ZM6.28197 14.6416H3.01485V9.74287H6.28197V14.6416ZM10.4873 14.6416H7.22021V9.74287H10.4873V14.6416Z" fill="black"/>
<path d="M20.9748 8.80469H13.1222C12.7096 8.80469 12.374 9.14031 12.374 9.55287V14.8316C12.374 15.2442 12.7096 15.5798 13.1222 15.5798H20.9748C21.3873 15.5798 21.7229 15.2442 21.7229 14.8316V9.55287C21.7229 9.14031 21.3873 8.80469 20.9748 8.80469ZM20.7848 14.6416H17.5176V12.8637C17.5176 12.6046 17.3076 12.3946 17.0485 12.3946C16.7893 12.3946 16.5793 12.6046 16.5793 12.8637V14.6416H13.3122V9.74287H16.5793V10.6809C16.5793 10.94 16.7893 11.15 17.0485 11.15C17.3076 11.15 17.5176 10.94 17.5176 10.6809V9.74287H20.7848V14.6416Z" fill="black"/>
</svg>
