<?xml version="1.0" standalone="no"?>
<!DOCTYPE svg PUBLIC "-//W3C//DTD SVG 20010904//EN"
 "http://www.w3.org/TR/2001/REC-SVG-20010904/DTD/svg10.dtd">
<svg version="1.0" xmlns="http://www.w3.org/2000/svg"
 width="577.000000pt" height="168.000000pt" viewBox="0 0 577.000000 168.000000"
 preserveAspectRatio="xMidYMid meet">

<g transform="translate(0.000000,168.000000) scale(0.100000,-0.100000)"
fill="#000000" stroke="none">
<path d="M41 1666 c2 -2 96 -40 209 -85 113 -44 416 -163 675 -266 l469 -185
51 34 c107 70 239 125 353 146 56 10 722 71 2707 250 556 50 1019 95 1030 100
11 5 -1185 9 -2739 9 -1518 1 -2757 -1 -2755 -3z"/>
<path d="M458 1060 c-173 -29 -313 -134 -392 -290 -139 -278 1 -620 299 -732
52 -20 78 -23 195 -22 131 1 216 15 313 53 l27 11 0 265 0 265 -140 0 -140 0
0 -176 0 -177 -58 6 c-238 21 -341 320 -165 478 73 66 137 78 301 57 20 -3 31
11 82 102 33 58 59 110 60 116 0 15 -64 31 -176 44 -100 11 -138 11 -206 0z"/>
<path d="M4520 895 l0 -175 -73 6 c-158 14 -297 -66 -361 -207 -84 -183 1
-409 184 -485 51 -22 142 -28 197 -15 33 9 49 9 51 2 2 -7 50 -11 133 -11
l129 0 0 530 0 530 -130 0 -130 0 0 -175z m-60 -440 c89 -46 54 -185 -47 -185
-93 1 -135 100 -69 166 38 38 70 43 116 19z"/>
<path d="M4897 1063 c-4 -3 -7 -242 -7 -530 l0 -523 145 0 145 0 0 237 c0 130
4 233 8 227 5 -5 57 -111 117 -236 l109 -228 178 0 178 0 -14 23 c-38 59 -296
521 -294 527 2 3 67 112 145 241 79 130 146 244 149 253 6 15 -9 16 -157 14
l-164 -3 -125 -225 -125 -225 -3 228 -2 227 -139 0 c-76 0 -141 -3 -144 -7z"/>
<path d="M1453 745 c-49 -15 -124 -57 -143 -79 -21 -26 -30 -18 -30 24 l0 40
-130 0 -130 0 0 -360 0 -360 130 0 130 0 0 158 c0 86 5 175 11 197 23 85 132
153 222 138 l37 -6 0 132 0 131 -27 -1 c-16 0 -47 -6 -70 -14z"/>
<path d="M2460 468 c0 -265 1 -284 21 -325 70 -144 252 -176 368 -66 24 24 46
43 48 43 2 0 3 -25 3 -55 l0 -55 120 0 120 0 0 370 0 371 -126 -3 -126 -3 2
-213 c1 -232 -6 -268 -56 -291 -32 -14 -47 -14 -79 1 -50 23 -55 48 -55 288
l0 220 -120 0 -120 0 0 -282z"/>
<path d="M3270 380 l0 -370 125 0 125 0 0 220 c0 243 5 267 58 289 37 16 77 5
102 -26 19 -24 20 -41 20 -254 l0 -229 126 0 125 0 -3 288 -3 289 -30 49 c-80
129 -246 150 -357 46 l-48 -45 0 57 0 56 -120 0 -120 0 0 -370z"/>
<path d="M1869 712 c-111 -37 -189 -111 -230 -222 -29 -78 -24 -193 13 -272
34 -73 103 -142 176 -176 48 -22 71 -26 147 -27 77 0 98 4 147 27 285 133 286
525 2 655 -74 34 -179 40 -255 15z m184 -282 c30 -34 34 -67 12 -110 -46 -89
-185 -54 -185 47 1 94 108 134 173 63z"/>
</g>
</svg>
