<svg width="124" height="124" viewBox="0 0 124 124" fill="none" xmlns="http://www.w3.org/2000/svg">
<g clip-path="url(#clip0_171_2741)">
<path d="M108.407 3.75195H16.058V96.101H108.407V3.75195Z" fill="white"/>
<path d="M17.174 124H107.229C109.957 124 112.127 121.768 112.127 119.102V4.898C112.127 2.17 109.926 0 107.229 0H17.205C14.477 0 12.307 2.232 12.276 4.898V119.102C12.276 121.83 14.508 124 17.174 124ZM16.058 6.417C16.058 4.96 17.236 3.782 18.693 3.782H105.71C107.167 3.782 108.345 4.96 108.345 6.417V93.465C108.345 94.922 107.167 96.1 105.71 96.1H18.724C17.267 96.1 16.089 94.922 16.089 93.465V6.417H16.058Z" fill="black"/>
<path d="M31.93 114.546C33.573 114.515 34.441 113.926 34.441 112.748C34.441 111.787 33.914 111.26 32.798 111.043C32.302 110.981 31.713 110.888 31.124 110.795C30.008 110.609 29.202 110.237 28.613 109.586C28.055 108.935 27.714 108.16 27.714 107.23C27.714 106.114 28.086 105.215 28.83 104.533C29.543 103.851 30.535 103.541 31.868 103.51C33.449 103.541 34.844 103.975 35.991 104.843L34.906 106.424C33.945 105.773 32.891 105.463 31.744 105.463C31.124 105.463 30.659 105.618 30.256 105.897C29.822 106.207 29.605 106.641 29.605 107.292C29.605 107.664 29.76 108.005 30.039 108.284C30.318 108.563 30.783 108.78 31.403 108.935C31.775 108.997 32.24 109.09 32.829 109.152C34.007 109.338 34.906 109.772 35.464 110.454C36.022 111.136 36.332 111.911 36.332 112.81C36.27 115.228 34.782 116.499 31.868 116.53C29.977 116.53 28.365 115.972 27.001 114.763L28.241 113.306C29.295 114.112 30.535 114.546 31.93 114.546ZM46.934 112.841C46.655 114.019 46.097 114.918 45.322 115.569C44.485 116.22 43.555 116.499 42.47 116.499C41.478 116.468 40.641 116.251 39.959 115.755C39.277 115.29 38.781 114.794 38.471 114.205C38.378 114.019 38.285 113.833 38.223 113.678C38.161 113.492 38.068 113.275 38.037 112.996C37.975 112.5 37.882 111.508 37.882 110.02C37.882 108.563 37.913 107.54 38.037 107.044C38.13 106.548 38.285 106.145 38.471 105.835C38.781 105.277 39.246 104.719 39.959 104.254C40.641 103.789 41.447 103.541 42.47 103.541C43.679 103.541 44.702 103.913 45.477 104.657C46.252 105.37 46.717 106.269 46.934 107.354H44.888C44.733 106.858 44.454 106.393 44.02 106.021C43.586 105.649 43.059 105.494 42.439 105.494C41.974 105.494 41.571 105.587 41.261 105.773C40.951 105.959 40.641 106.176 40.486 106.424C40.238 106.703 40.052 107.075 39.99 107.509C39.897 107.974 39.835 108.842 39.835 110.082C39.835 111.322 39.866 112.19 39.99 112.624C40.052 113.058 40.238 113.399 40.486 113.709C40.703 113.957 40.951 114.174 41.261 114.36C41.571 114.546 41.974 114.639 42.439 114.639C43.524 114.639 44.33 114.081 44.857 112.872L46.934 112.841ZM54.901 113.554H50.065L49.104 116.406H47.058L51.677 103.665H53.289L57.908 116.406H55.862L54.901 113.554ZM54.281 111.849L52.421 106.269H52.39L50.53 111.849H54.281ZM59.21 103.634H61.039L66.805 112.686H66.836V103.634H68.758V116.375H66.929L61.194 107.323H61.163V116.375H59.241V103.634H59.21ZM75.733 103.634H77.562L81.22 111.942L84.785 103.634H86.614V116.375H84.692V108.439H84.661L82.026 114.546H80.414L77.779 108.439V116.375H75.857V103.634H75.733ZM89.311 103.634H97.433V105.463H91.233V109.121H96.534V110.826H91.233V114.546H97.433V116.375H89.311V103.634Z" fill="white"/>
<g clip-path="url(#clip1_171_2741)">
<path d="M124 0H0V124H124V0Z" fill="white"/>
<path d="M7.19304 3.09961H3.09998V7.19268H7.19304V3.09961Z" fill="black"/>
<path d="M11.2552 3.09961H7.16211V7.19268H11.2552V3.09961Z" fill="black"/>
<path d="M15.3172 3.09961H11.2241V7.19268H15.3172V3.09961Z" fill="black"/>
<path d="M19.3793 3.09961H15.2863V7.19268H19.3793V3.09961Z" fill="black"/>
<path d="M23.4413 3.09961H19.3483V7.19268H23.4413V3.09961Z" fill="black"/>
<path d="M27.5035 3.09961H23.4104V7.19268H27.5035V3.09961Z" fill="black"/>
<path d="M31.5655 3.09961H27.4724V7.19268H31.5655V3.09961Z" fill="black"/>
<path d="M47.8138 3.09961H43.7207V7.19268H47.8138V3.09961Z" fill="black"/>
<path d="M59.9999 3.09961H55.9069V7.19268H59.9999V3.09961Z" fill="black"/>
<path d="M64.0621 3.09961H59.969V7.19268H64.0621V3.09961Z" fill="black"/>
<path d="M68.1241 3.09961H64.031V7.19268H68.1241V3.09961Z" fill="black"/>
<path d="M80.3104 3.09961H76.2173V7.19268H80.3104V3.09961Z" fill="black"/>
<path d="M84.3724 3.09961H80.2793V7.19268H84.3724V3.09961Z" fill="black"/>
<path d="M96.5586 3.09961H92.4656V7.19268H96.5586V3.09961Z" fill="black"/>
<path d="M100.621 3.09961H96.5276V7.19268H100.621V3.09961Z" fill="black"/>
<path d="M104.683 3.09961H100.59V7.19268H104.683V3.09961Z" fill="black"/>
<path d="M108.745 3.09961H104.652V7.19268H108.745V3.09961Z" fill="black"/>
<path d="M112.807 3.09961H108.714V7.19268H112.807V3.09961Z" fill="black"/>
<path d="M116.869 3.09961H112.776V7.19268H116.869V3.09961Z" fill="black"/>
<path d="M120.931 3.09961H116.838V7.19268H120.931V3.09961Z" fill="black"/>
<path d="M7.19304 7.16211H3.09998V11.2552H7.19304V7.16211Z" fill="black"/>
<path d="M31.5655 7.16211H27.4724V11.2552H31.5655V7.16211Z" fill="black"/>
<path d="M43.7516 7.16211H39.6586V11.2552H43.7516V7.16211Z" fill="black"/>
<path d="M64.0621 7.16211H59.969V11.2552H64.0621V7.16211Z" fill="black"/>
<path d="M68.1241 7.16211H64.031V11.2552H68.1241V7.16211Z" fill="black"/>
<path d="M72.1862 7.16211H68.0931V11.2552H72.1862V7.16211Z" fill="black"/>
<path d="M76.2482 7.16211H72.1552V11.2552H76.2482V7.16211Z" fill="black"/>
<path d="M80.3104 7.16211H76.2173V11.2552H80.3104V7.16211Z" fill="black"/>
<path d="M84.3724 7.16211H80.2793V11.2552H84.3724V7.16211Z" fill="black"/>
<path d="M88.4345 7.16211H84.3414V11.2552H88.4345V7.16211Z" fill="black"/>
<path d="M96.5586 7.16211H92.4656V11.2552H96.5586V7.16211Z" fill="black"/>
<path d="M120.931 7.16211H116.838V11.2552H120.931V7.16211Z" fill="black"/>
<path d="M7.19304 11.2246H3.09998V15.3177H7.19304V11.2246Z" fill="black"/>
<path d="M15.3172 11.2246H11.2241V15.3177H15.3172V11.2246Z" fill="black"/>
<path d="M19.3793 11.2246H15.2863V15.3177H19.3793V11.2246Z" fill="black"/>
<path d="M23.4413 11.2246H19.3483V15.3177H23.4413V11.2246Z" fill="black"/>
<path d="M31.5655 11.2246H27.4724V15.3177H31.5655V11.2246Z" fill="black"/>
<path d="M39.6896 11.2246H35.5966V15.3177H39.6896V11.2246Z" fill="black"/>
<path d="M51.8758 11.2246H47.7827V15.3177H51.8758V11.2246Z" fill="black"/>
<path d="M68.1241 11.2246H64.031V15.3177H68.1241V11.2246Z" fill="black"/>
<path d="M72.1862 11.2246H68.0931V15.3177H72.1862V11.2246Z" fill="black"/>
<path d="M80.3104 11.2246H76.2173V15.3177H80.3104V11.2246Z" fill="black"/>
<path d="M84.3724 11.2246H80.2793V15.3177H84.3724V11.2246Z" fill="black"/>
<path d="M96.5586 11.2246H92.4656V15.3177H96.5586V11.2246Z" fill="black"/>
<path d="M104.683 11.2246H100.59V15.3177H104.683V11.2246Z" fill="black"/>
<path d="M108.745 11.2246H104.652V15.3177H108.745V11.2246Z" fill="black"/>
<path d="M112.807 11.2246H108.714V15.3177H112.807V11.2246Z" fill="black"/>
<path d="M120.931 11.2246H116.838V15.3177H120.931V11.2246Z" fill="black"/>
<path d="M7.19304 15.2871H3.09998V19.3802H7.19304V15.2871Z" fill="black"/>
<path d="M15.3172 15.2871H11.2241V19.3802H15.3172V15.2871Z" fill="black"/>
<path d="M19.3793 15.2871H15.2863V19.3802H19.3793V15.2871Z" fill="black"/>
<path d="M23.4413 15.2871H19.3483V19.3802H23.4413V15.2871Z" fill="black"/>
<path d="M31.5655 15.2871H27.4724V19.3802H31.5655V15.2871Z" fill="black"/>
<path d="M43.7516 15.2871H39.6586V19.3802H43.7516V15.2871Z" fill="black"/>
<path d="M55.9379 15.2871H51.8448V19.3802H55.9379V15.2871Z" fill="black"/>
<path d="M64.0621 15.2871H59.969V19.3802H64.0621V15.2871Z" fill="black"/>
<path d="M68.1241 15.2871H64.031V19.3802H68.1241V15.2871Z" fill="black"/>
<path d="M80.3104 15.2871H76.2173V19.3802H80.3104V15.2871Z" fill="black"/>
<path d="M96.5586 15.2871H92.4656V19.3802H96.5586V15.2871Z" fill="black"/>
<path d="M104.683 15.2871H100.59V19.3802H104.683V15.2871Z" fill="black"/>
<path d="M108.745 15.2871H104.652V19.3802H108.745V15.2871Z" fill="black"/>
<path d="M112.807 15.2871H108.714V19.3802H112.807V15.2871Z" fill="black"/>
<path d="M120.931 15.2871H116.838V19.3802H120.931V15.2871Z" fill="black"/>
<path d="M7.19304 19.3477H3.09998V23.4407H7.19304V19.3477Z" fill="black"/>
<path d="M15.3172 19.3477H11.2241V23.4407H15.3172V19.3477Z" fill="black"/>
<path d="M19.3793 19.3477H15.2863V23.4407H19.3793V19.3477Z" fill="black"/>
<path d="M23.4413 19.3477H19.3483V23.4407H23.4413V19.3477Z" fill="black"/>
<path d="M31.5655 19.3477H27.4724V23.4407H31.5655V19.3477Z" fill="black"/>
<path d="M43.7516 19.3477H39.6586V23.4407H43.7516V19.3477Z" fill="black"/>
<path d="M55.9379 19.3477H51.8448V23.4407H55.9379V19.3477Z" fill="black"/>
<path d="M59.9999 19.3477H55.9069V23.4407H59.9999V19.3477Z" fill="black"/>
<path d="M64.0621 19.3477H59.969V23.4407H64.0621V19.3477Z" fill="black"/>
<path d="M68.1241 19.3477H64.031V23.4407H68.1241V19.3477Z" fill="black"/>
<path d="M80.3104 19.3477H76.2173V23.4407H80.3104V19.3477Z" fill="black"/>
<path d="M84.3724 19.3477H80.2793V23.4407H84.3724V19.3477Z" fill="black"/>
<path d="M96.5586 19.3477H92.4656V23.4407H96.5586V19.3477Z" fill="black"/>
<path d="M104.683 19.3477H100.59V23.4407H104.683V19.3477Z" fill="black"/>
<path d="M108.745 19.3477H104.652V23.4407H108.745V19.3477Z" fill="black"/>
<path d="M112.807 19.3477H108.714V23.4407H112.807V19.3477Z" fill="black"/>
<path d="M120.931 19.3477H116.838V23.4407H120.931V19.3477Z" fill="black"/>
<path d="M7.19304 23.4102H3.09998V27.5032H7.19304V23.4102Z" fill="black"/>
<path d="M31.5655 23.4102H27.4724V27.5032H31.5655V23.4102Z" fill="black"/>
<path d="M47.8138 23.4102H43.7207V27.5032H47.8138V23.4102Z" fill="black"/>
<path d="M51.8758 23.4102H47.7827V27.5032H51.8758V23.4102Z" fill="black"/>
<path d="M55.9379 23.4102H51.8448V27.5032H55.9379V23.4102Z" fill="black"/>
<path d="M59.9999 23.4102H55.9069V27.5032H59.9999V23.4102Z" fill="black"/>
<path d="M64.0621 23.4102H59.969V27.5032H64.0621V23.4102Z" fill="black"/>
<path d="M68.1241 23.4102H64.031V27.5032H68.1241V23.4102Z" fill="black"/>
<path d="M76.2482 23.4102H72.1552V27.5032H76.2482V23.4102Z" fill="black"/>
<path d="M80.3104 23.4102H76.2173V27.5032H80.3104V23.4102Z" fill="black"/>
<path d="M84.3724 23.4102H80.2793V27.5032H84.3724V23.4102Z" fill="black"/>
<path d="M88.4345 23.4102H84.3414V27.5032H88.4345V23.4102Z" fill="black"/>
<path d="M96.5586 23.4102H92.4656V27.5032H96.5586V23.4102Z" fill="black"/>
<path d="M120.931 23.4102H116.838V27.5032H120.931V23.4102Z" fill="black"/>
<path d="M7.19304 27.4727H3.09998V31.5657H7.19304V27.4727Z" fill="black"/>
<path d="M11.2552 27.4727H7.16211V31.5657H11.2552V27.4727Z" fill="black"/>
<path d="M15.3172 27.4727H11.2241V31.5657H15.3172V27.4727Z" fill="black"/>
<path d="M19.3793 27.4727H15.2863V31.5657H19.3793V27.4727Z" fill="black"/>
<path d="M23.4413 27.4727H19.3483V31.5657H23.4413V27.4727Z" fill="black"/>
<path d="M27.5035 27.4727H23.4104V31.5657H27.5035V27.4727Z" fill="black"/>
<path d="M31.5655 27.4727H27.4724V31.5657H31.5655V27.4727Z" fill="black"/>
<path d="M39.6896 27.4727H35.5966V31.5657H39.6896V27.4727Z" fill="black"/>
<path d="M47.8138 27.4727H43.7207V31.5657H47.8138V27.4727Z" fill="black"/>
<path d="M55.9379 27.4727H51.8448V31.5657H55.9379V27.4727Z" fill="black"/>
<path d="M64.0621 27.4727H59.969V31.5657H64.0621V27.4727Z" fill="black"/>
<path d="M72.1862 27.4727H68.0931V31.5657H72.1862V27.4727Z" fill="black"/>
<path d="M80.3104 27.4727H76.2173V31.5657H80.3104V27.4727Z" fill="black"/>
<path d="M88.4345 27.4727H84.3414V31.5657H88.4345V27.4727Z" fill="black"/>
<path d="M96.5586 27.4727H92.4656V31.5657H96.5586V27.4727Z" fill="black"/>
<path d="M100.621 27.4727H96.5276V31.5657H100.621V27.4727Z" fill="black"/>
<path d="M104.683 27.4727H100.59V31.5657H104.683V27.4727Z" fill="black"/>
<path d="M108.745 27.4727H104.652V31.5657H108.745V27.4727Z" fill="black"/>
<path d="M112.807 27.4727H108.714V31.5657H112.807V27.4727Z" fill="black"/>
<path d="M116.869 27.4727H112.776V31.5657H116.869V27.4727Z" fill="black"/>
<path d="M120.931 27.4727H116.838V31.5657H120.931V27.4727Z" fill="black"/>
<path d="M39.6896 31.5352H35.5966V35.6282H39.6896V31.5352Z" fill="black"/>
<path d="M51.8758 31.5352H47.7827V35.6282H51.8758V31.5352Z" fill="black"/>
<path d="M59.9999 31.5352H55.9069V35.6282H59.9999V31.5352Z" fill="black"/>
<path d="M64.0621 31.5352H59.969V35.6282H64.0621V31.5352Z" fill="black"/>
<path d="M72.1862 31.5352H68.0931V35.6282H72.1862V31.5352Z" fill="black"/>
<path d="M76.2482 31.5352H72.1552V35.6282H76.2482V31.5352Z" fill="black"/>
<path d="M80.3104 31.5352H76.2173V35.6282H80.3104V31.5352Z" fill="black"/>
<path d="M7.19304 35.5957H3.09998V39.6888H7.19304V35.5957Z" fill="black"/>
<path d="M11.2552 35.5957H7.16211V39.6888H11.2552V35.5957Z" fill="black"/>
<path d="M15.3172 35.5957H11.2241V39.6888H15.3172V35.5957Z" fill="black"/>
<path d="M23.4413 35.5957H19.3483V39.6888H23.4413V35.5957Z" fill="black"/>
<path d="M27.5035 35.5957H23.4104V39.6888H27.5035V35.5957Z" fill="black"/>
<path d="M31.5655 35.5957H27.4724V39.6888H31.5655V35.5957Z" fill="black"/>
<path d="M35.6275 35.5957H31.5344V39.6888H35.6275V35.5957Z" fill="black"/>
<path d="M39.6896 35.5957H35.5966V39.6888H39.6896V35.5957Z" fill="black"/>
<path d="M55.9379 35.5957H51.8448V39.6888H55.9379V35.5957Z" fill="black"/>
<path d="M59.9999 35.5957H55.9069V39.6888H59.9999V35.5957Z" fill="black"/>
<path d="M64.0621 35.5957H59.969V39.6888H64.0621V35.5957Z" fill="black"/>
<path d="M68.1241 35.5957H64.031V39.6888H68.1241V35.5957Z" fill="black"/>
<path d="M72.1862 35.5957H68.0931V39.6888H72.1862V35.5957Z" fill="black"/>
<path d="M76.2482 35.5957H72.1552V39.6888H76.2482V35.5957Z" fill="black"/>
<path d="M80.3104 35.5957H76.2173V39.6888H80.3104V35.5957Z" fill="black"/>
<path d="M88.4345 35.5957H84.3414V39.6888H88.4345V35.5957Z" fill="black"/>
<path d="M92.4965 35.5957H88.4034V39.6888H92.4965V35.5957Z" fill="black"/>
<path d="M96.5586 35.5957H92.4656V39.6888H96.5586V35.5957Z" fill="black"/>
<path d="M112.807 35.5957H108.714V39.6888H112.807V35.5957Z" fill="black"/>
<path d="M7.19304 39.6582H3.09998V43.7513H7.19304V39.6582Z" fill="black"/>
<path d="M15.3172 39.6582H11.2241V43.7513H15.3172V39.6582Z" fill="black"/>
<path d="M23.4413 39.6582H19.3483V43.7513H23.4413V39.6582Z" fill="black"/>
<path d="M35.6275 39.6582H31.5344V43.7513H35.6275V39.6582Z" fill="black"/>
<path d="M39.6896 39.6582H35.5966V43.7513H39.6896V39.6582Z" fill="black"/>
<path d="M43.7516 39.6582H39.6586V43.7513H43.7516V39.6582Z" fill="black"/>
<path d="M51.8758 39.6582H47.7827V43.7513H51.8758V39.6582Z" fill="black"/>
<path d="M55.9379 39.6582H51.8448V43.7513H55.9379V39.6582Z" fill="black"/>
<path d="M84.3724 39.6582H80.2793V43.7513H84.3724V39.6582Z" fill="black"/>
<path d="M88.4345 39.6582H84.3414V43.7513H88.4345V39.6582Z" fill="black"/>
<path d="M92.4965 39.6582H88.4034V43.7513H92.4965V39.6582Z" fill="black"/>
<path d="M96.5586 39.6582H92.4656V43.7513H96.5586V39.6582Z" fill="black"/>
<path d="M108.745 39.6582H104.652V43.7513H108.745V39.6582Z" fill="black"/>
<path d="M120.931 39.6582H116.838V43.7513H120.931V39.6582Z" fill="black"/>
<path d="M11.2552 43.7207H7.16211V47.8138H11.2552V43.7207Z" fill="black"/>
<path d="M15.3172 43.7207H11.2241V47.8138H15.3172V43.7207Z" fill="black"/>
<path d="M19.3793 43.7207H15.2863V47.8138H19.3793V43.7207Z" fill="black"/>
<path d="M31.5655 43.7207H27.4724V47.8138H31.5655V43.7207Z" fill="black"/>
<path d="M39.6896 43.7207H35.5966V47.8138H39.6896V43.7207Z" fill="black"/>
<path d="M47.8138 43.7207H43.7207V47.8138H47.8138V43.7207Z" fill="black"/>
<path d="M51.8758 43.7207H47.7827V47.8138H51.8758V43.7207Z" fill="black"/>
<path d="M55.9379 43.7207H51.8448V47.8138H55.9379V43.7207Z" fill="black"/>
<path d="M59.9999 43.7207H55.9069V47.8138H59.9999V43.7207Z" fill="black"/>
<path d="M72.1862 43.7207H68.0931V47.8138H72.1862V43.7207Z" fill="black"/>
<path d="M88.4345 43.7207H84.3414V47.8138H88.4345V43.7207Z" fill="black"/>
<path d="M92.4965 43.7207H88.4034V47.8138H92.4965V43.7207Z" fill="black"/>
<path d="M100.621 43.7207H96.5276V47.8138H100.621V43.7207Z" fill="black"/>
<path d="M112.807 43.7207H108.714V47.8138H112.807V43.7207Z" fill="black"/>
<path d="M116.869 43.7207H112.776V47.8138H116.869V43.7207Z" fill="black"/>
<path d="M120.931 43.7207H116.838V47.8138H120.931V43.7207Z" fill="black"/>
<path d="M15.3172 47.7832H11.2241V51.8763H15.3172V47.7832Z" fill="black"/>
<path d="M35.6275 47.7832H31.5344V51.8763H35.6275V47.7832Z" fill="black"/>
<path d="M39.6896 47.7832H35.5966V51.8763H39.6896V47.7832Z" fill="black"/>
<path d="M43.7516 47.7832H39.6586V51.8763H43.7516V47.7832Z" fill="black"/>
<path d="M47.8138 47.7832H43.7207V51.8763H47.8138V47.7832Z" fill="black"/>
<path d="M55.9379 47.7832H51.8448V51.8763H55.9379V47.7832Z" fill="black"/>
<path d="M59.9999 47.7832H55.9069V51.8763H59.9999V47.7832Z" fill="black"/>
<path d="M64.0621 47.7832H59.969V51.8763H64.0621V47.7832Z" fill="black"/>
<path d="M76.2482 47.7832H72.1552V51.8763H76.2482V47.7832Z" fill="black"/>
<path d="M80.3104 47.7832H76.2173V51.8763H80.3104V47.7832Z" fill="black"/>
<path d="M92.4965 47.7832H88.4034V51.8763H92.4965V47.7832Z" fill="black"/>
<path d="M96.5586 47.7832H92.4656V51.8763H96.5586V47.7832Z" fill="black"/>
<path d="M104.683 47.7832H100.59V51.8763H104.683V47.7832Z" fill="black"/>
<path d="M108.745 47.7832H104.652V51.8763H108.745V47.7832Z" fill="black"/>
<path d="M116.869 47.7832H112.776V51.8763H116.869V47.7832Z" fill="black"/>
<path d="M11.2552 51.8457H7.16211V55.9388H11.2552V51.8457Z" fill="black"/>
<path d="M23.4413 51.8457H19.3483V55.9388H23.4413V51.8457Z" fill="black"/>
<path d="M31.5655 51.8457H27.4724V55.9388H31.5655V51.8457Z" fill="black"/>
<path d="M39.6896 51.8457H35.5966V55.9388H39.6896V51.8457Z" fill="black"/>
<path d="M47.8138 51.8457H43.7207V55.9388H47.8138V51.8457Z" fill="black"/>
<path d="M51.8758 51.8457H47.7827V55.9388H51.8758V51.8457Z" fill="black"/>
<path d="M64.0621 51.8457H59.969V55.9388H64.0621V51.8457Z" fill="black"/>
<path d="M92.4965 51.8457H88.4034V55.9388H92.4965V51.8457Z" fill="black"/>
<path d="M96.5586 51.8457H92.4656V55.9388H96.5586V51.8457Z" fill="black"/>
<path d="M104.683 51.8457H100.59V55.9388H104.683V51.8457Z" fill="black"/>
<path d="M108.745 51.8457H104.652V55.9388H108.745V51.8457Z" fill="black"/>
<path d="M116.869 51.8457H112.776V55.9388H116.869V51.8457Z" fill="black"/>
<path d="M120.931 51.8457H116.838V55.9388H120.931V51.8457Z" fill="black"/>
<path d="M7.19304 55.9062H3.09998V59.9993H7.19304V55.9062Z" fill="black"/>
<path d="M11.2552 55.9062H7.16211V59.9993H11.2552V55.9062Z" fill="black"/>
<path d="M15.3172 55.9062H11.2241V59.9993H15.3172V55.9062Z" fill="black"/>
<path d="M27.5035 55.9062H23.4104V59.9993H27.5035V55.9062Z" fill="black"/>
<path d="M39.6896 55.9062H35.5966V59.9993H39.6896V55.9062Z" fill="black"/>
<path d="M47.8138 55.9062H43.7207V59.9993H47.8138V55.9062Z" fill="black"/>
<path d="M51.8758 55.9062H47.7827V59.9993H51.8758V55.9062Z" fill="black"/>
<path d="M72.1862 55.9062H68.0931V59.9993H72.1862V55.9062Z" fill="black"/>
<path d="M76.2482 55.9062H72.1552V59.9993H76.2482V55.9062Z" fill="black"/>
<path d="M84.3724 55.9062H80.2793V59.9993H84.3724V55.9062Z" fill="black"/>
<path d="M88.4345 55.9062H84.3414V59.9993H88.4345V55.9062Z" fill="black"/>
<path d="M92.4965 55.9062H88.4034V59.9993H92.4965V55.9062Z" fill="black"/>
<path d="M96.5586 55.9062H92.4656V59.9993H96.5586V55.9062Z" fill="black"/>
<path d="M108.745 55.9062H104.652V59.9993H108.745V55.9062Z" fill="black"/>
<path d="M112.807 55.9062H108.714V59.9993H112.807V55.9062Z" fill="black"/>
<path d="M120.931 55.9062H116.838V59.9993H120.931V55.9062Z" fill="black"/>
<path d="M7.19304 59.9688H3.09998V64.0618H7.19304V59.9688Z" fill="black"/>
<path d="M15.3172 59.9688H11.2241V64.0618H15.3172V59.9688Z" fill="black"/>
<path d="M31.5655 59.9688H27.4724V64.0618H31.5655V59.9688Z" fill="black"/>
<path d="M39.6896 59.9688H35.5966V64.0618H39.6896V59.9688Z" fill="black"/>
<path d="M43.7516 59.9688H39.6586V64.0618H43.7516V59.9688Z" fill="black"/>
<path d="M47.8138 59.9688H43.7207V64.0618H47.8138V59.9688Z" fill="black"/>
<path d="M59.9999 59.9688H55.9069V64.0618H59.9999V59.9688Z" fill="black"/>
<path d="M76.2482 59.9688H72.1552V64.0618H76.2482V59.9688Z" fill="black"/>
<path d="M92.4965 59.9688H88.4034V64.0618H92.4965V59.9688Z" fill="black"/>
<path d="M116.869 59.9688H112.776V64.0618H116.869V59.9688Z" fill="black"/>
<path d="M120.931 59.9688H116.838V64.0618H120.931V59.9688Z" fill="black"/>
<path d="M7.19304 64.0312H3.09998V68.1243H7.19304V64.0312Z" fill="black"/>
<path d="M23.4413 64.0312H19.3483V68.1243H23.4413V64.0312Z" fill="black"/>
<path d="M47.8138 64.0312H43.7207V68.1243H47.8138V64.0312Z" fill="black"/>
<path d="M51.8758 64.0312H47.7827V68.1243H51.8758V64.0312Z" fill="black"/>
<path d="M72.1862 64.0312H68.0931V68.1243H72.1862V64.0312Z" fill="black"/>
<path d="M76.2482 64.0312H72.1552V68.1243H76.2482V64.0312Z" fill="black"/>
<path d="M80.3104 64.0312H76.2173V68.1243H80.3104V64.0312Z" fill="black"/>
<path d="M84.3724 64.0312H80.2793V68.1243H84.3724V64.0312Z" fill="black"/>
<path d="M92.4965 64.0312H88.4034V68.1243H92.4965V64.0312Z" fill="black"/>
<path d="M104.683 64.0312H100.59V68.1243H104.683V64.0312Z" fill="black"/>
<path d="M108.745 64.0312H104.652V68.1243H108.745V64.0312Z" fill="black"/>
<path d="M116.869 64.0312H112.776V68.1243H116.869V64.0312Z" fill="black"/>
<path d="M15.3172 68.0938H11.2241V72.1868H15.3172V68.0938Z" fill="black"/>
<path d="M27.5035 68.0938H23.4104V72.1868H27.5035V68.0938Z" fill="black"/>
<path d="M31.5655 68.0938H27.4724V72.1868H31.5655V68.0938Z" fill="black"/>
<path d="M35.6275 68.0938H31.5344V72.1868H35.6275V68.0938Z" fill="black"/>
<path d="M43.7516 68.0938H39.6586V72.1868H43.7516V68.0938Z" fill="black"/>
<path d="M47.8138 68.0938H43.7207V72.1868H47.8138V68.0938Z" fill="black"/>
<path d="M55.9379 68.0938H51.8448V72.1868H55.9379V68.0938Z" fill="black"/>
<path d="M68.1241 68.0938H64.031V72.1868H68.1241V68.0938Z" fill="black"/>
<path d="M72.1862 68.0938H68.0931V72.1868H72.1862V68.0938Z" fill="black"/>
<path d="M76.2482 68.0938H72.1552V72.1868H76.2482V68.0938Z" fill="black"/>
<path d="M92.4965 68.0938H88.4034V72.1868H92.4965V68.0938Z" fill="black"/>
<path d="M96.5586 68.0938H92.4656V72.1868H96.5586V68.0938Z" fill="black"/>
<path d="M116.869 68.0938H112.776V72.1868H116.869V68.0938Z" fill="black"/>
<path d="M120.931 68.0938H116.838V72.1868H120.931V68.0938Z" fill="black"/>
<path d="M11.2552 72.1543H7.16211V76.2474H11.2552V72.1543Z" fill="black"/>
<path d="M15.3172 72.1543H11.2241V76.2474H15.3172V72.1543Z" fill="black"/>
<path d="M27.5035 72.1543H23.4104V76.2474H27.5035V72.1543Z" fill="black"/>
<path d="M35.6275 72.1543H31.5344V76.2474H35.6275V72.1543Z" fill="black"/>
<path d="M39.6896 72.1543H35.5966V76.2474H39.6896V72.1543Z" fill="black"/>
<path d="M47.8138 72.1543H43.7207V76.2474H47.8138V72.1543Z" fill="black"/>
<path d="M51.8758 72.1543H47.7827V76.2474H51.8758V72.1543Z" fill="black"/>
<path d="M55.9379 72.1543H51.8448V76.2474H55.9379V72.1543Z" fill="black"/>
<path d="M59.9999 72.1543H55.9069V76.2474H59.9999V72.1543Z" fill="black"/>
<path d="M72.1862 72.1543H68.0931V76.2474H72.1862V72.1543Z" fill="black"/>
<path d="M76.2482 72.1543H72.1552V76.2474H76.2482V72.1543Z" fill="black"/>
<path d="M84.3724 72.1543H80.2793V76.2474H84.3724V72.1543Z" fill="black"/>
<path d="M88.4345 72.1543H84.3414V76.2474H88.4345V72.1543Z" fill="black"/>
<path d="M92.4965 72.1543H88.4034V76.2474H92.4965V72.1543Z" fill="black"/>
<path d="M96.5586 72.1543H92.4656V76.2474H96.5586V72.1543Z" fill="black"/>
<path d="M100.621 72.1543H96.5276V76.2474H100.621V72.1543Z" fill="black"/>
<path d="M112.807 72.1543H108.714V76.2474H112.807V72.1543Z" fill="black"/>
<path d="M120.931 72.1543H116.838V76.2474H120.931V72.1543Z" fill="black"/>
<path d="M7.19304 76.2168H3.09998V80.3099H7.19304V76.2168Z" fill="black"/>
<path d="M15.3172 76.2168H11.2241V80.3099H15.3172V76.2168Z" fill="black"/>
<path d="M23.4413 76.2168H19.3483V80.3099H23.4413V76.2168Z" fill="black"/>
<path d="M27.5035 76.2168H23.4104V80.3099H27.5035V76.2168Z" fill="black"/>
<path d="M31.5655 76.2168H27.4724V80.3099H31.5655V76.2168Z" fill="black"/>
<path d="M35.6275 76.2168H31.5344V80.3099H35.6275V76.2168Z" fill="black"/>
<path d="M43.7516 76.2168H39.6586V80.3099H43.7516V76.2168Z" fill="black"/>
<path d="M51.8758 76.2168H47.7827V80.3099H51.8758V76.2168Z" fill="black"/>
<path d="M55.9379 76.2168H51.8448V80.3099H55.9379V76.2168Z" fill="black"/>
<path d="M64.0621 76.2168H59.969V80.3099H64.0621V76.2168Z" fill="black"/>
<path d="M72.1862 76.2168H68.0931V80.3099H72.1862V76.2168Z" fill="black"/>
<path d="M100.621 76.2168H96.5276V80.3099H100.621V76.2168Z" fill="black"/>
<path d="M108.745 76.2168H104.652V80.3099H108.745V76.2168Z" fill="black"/>
<path d="M116.869 76.2168H112.776V80.3099H116.869V76.2168Z" fill="black"/>
<path d="M120.931 76.2168H116.838V80.3099H120.931V76.2168Z" fill="black"/>
<path d="M11.2552 80.2793H7.16211V84.3724H11.2552V80.2793Z" fill="black"/>
<path d="M15.3172 80.2793H11.2241V84.3724H15.3172V80.2793Z" fill="black"/>
<path d="M19.3793 80.2793H15.2863V84.3724H19.3793V80.2793Z" fill="black"/>
<path d="M23.4413 80.2793H19.3483V84.3724H23.4413V80.2793Z" fill="black"/>
<path d="M35.6275 80.2793H31.5344V84.3724H35.6275V80.2793Z" fill="black"/>
<path d="M39.6896 80.2793H35.5966V84.3724H39.6896V80.2793Z" fill="black"/>
<path d="M55.9379 80.2793H51.8448V84.3724H55.9379V80.2793Z" fill="black"/>
<path d="M59.9999 80.2793H55.9069V84.3724H59.9999V80.2793Z" fill="black"/>
<path d="M64.0621 80.2793H59.969V84.3724H64.0621V80.2793Z" fill="black"/>
<path d="M68.1241 80.2793H64.031V84.3724H68.1241V80.2793Z" fill="black"/>
<path d="M72.1862 80.2793H68.0931V84.3724H72.1862V80.2793Z" fill="black"/>
<path d="M76.2482 80.2793H72.1552V84.3724H76.2482V80.2793Z" fill="black"/>
<path d="M80.3104 80.2793H76.2173V84.3724H80.3104V80.2793Z" fill="black"/>
<path d="M84.3724 80.2793H80.2793V84.3724H84.3724V80.2793Z" fill="black"/>
<path d="M88.4345 80.2793H84.3414V84.3724H88.4345V80.2793Z" fill="black"/>
<path d="M108.745 80.2793H104.652V84.3724H108.745V80.2793Z" fill="black"/>
<path d="M116.869 80.2793H112.776V84.3724H116.869V80.2793Z" fill="black"/>
<path d="M7.19304 84.3418H3.09998V88.4349H7.19304V84.3418Z" fill="black"/>
<path d="M15.3172 84.3418H11.2241V88.4349H15.3172V84.3418Z" fill="black"/>
<path d="M27.5035 84.3418H23.4104V88.4349H27.5035V84.3418Z" fill="black"/>
<path d="M31.5655 84.3418H27.4724V88.4349H31.5655V84.3418Z" fill="black"/>
<path d="M35.6275 84.3418H31.5344V88.4349H35.6275V84.3418Z" fill="black"/>
<path d="M43.7516 84.3418H39.6586V88.4349H43.7516V84.3418Z" fill="black"/>
<path d="M51.8758 84.3418H47.7827V88.4349H51.8758V84.3418Z" fill="black"/>
<path d="M64.0621 84.3418H59.969V88.4349H64.0621V84.3418Z" fill="black"/>
<path d="M76.2482 84.3418H72.1552V88.4349H76.2482V84.3418Z" fill="black"/>
<path d="M84.3724 84.3418H80.2793V88.4349H84.3724V84.3418Z" fill="black"/>
<path d="M88.4345 84.3418H84.3414V88.4349H88.4345V84.3418Z" fill="black"/>
<path d="M92.4965 84.3418H88.4034V88.4349H92.4965V84.3418Z" fill="black"/>
<path d="M96.5586 84.3418H92.4656V88.4349H96.5586V84.3418Z" fill="black"/>
<path d="M100.621 84.3418H96.5276V88.4349H100.621V84.3418Z" fill="black"/>
<path d="M104.683 84.3418H100.59V88.4349H104.683V84.3418Z" fill="black"/>
<path d="M39.6896 88.4043H35.5966V92.4974H39.6896V88.4043Z" fill="black"/>
<path d="M51.8758 88.4043H47.7827V92.4974H51.8758V88.4043Z" fill="black"/>
<path d="M64.0621 88.4043H59.969V92.4974H64.0621V88.4043Z" fill="black"/>
<path d="M72.1862 88.4043H68.0931V92.4974H72.1862V88.4043Z" fill="black"/>
<path d="M84.3724 88.4043H80.2793V92.4974H84.3724V88.4043Z" fill="black"/>
<path d="M88.4345 88.4043H84.3414V92.4974H88.4345V88.4043Z" fill="black"/>
<path d="M104.683 88.4043H100.59V92.4974H104.683V88.4043Z" fill="black"/>
<path d="M112.807 88.4043H108.714V92.4974H112.807V88.4043Z" fill="black"/>
<path d="M116.869 88.4043H112.776V92.4974H116.869V88.4043Z" fill="black"/>
<path d="M120.931 88.4043H116.838V92.4974H120.931V88.4043Z" fill="black"/>
<path d="M7.19304 92.4648H3.09998V96.5579H7.19304V92.4648Z" fill="black"/>
<path d="M11.2552 92.4648H7.16211V96.5579H11.2552V92.4648Z" fill="black"/>
<path d="M15.3172 92.4648H11.2241V96.5579H15.3172V92.4648Z" fill="black"/>
<path d="M19.3793 92.4648H15.2863V96.5579H19.3793V92.4648Z" fill="black"/>
<path d="M23.4413 92.4648H19.3483V96.5579H23.4413V92.4648Z" fill="black"/>
<path d="M27.5035 92.4648H23.4104V96.5579H27.5035V92.4648Z" fill="black"/>
<path d="M31.5655 92.4648H27.4724V96.5579H31.5655V92.4648Z" fill="black"/>
<path d="M39.6896 92.4648H35.5966V96.5579H39.6896V92.4648Z" fill="black"/>
<path d="M59.9999 92.4648H55.9069V96.5579H59.9999V92.4648Z" fill="black"/>
<path d="M76.2482 92.4648H72.1552V96.5579H76.2482V92.4648Z" fill="black"/>
<path d="M84.3724 92.4648H80.2793V96.5579H84.3724V92.4648Z" fill="black"/>
<path d="M88.4345 92.4648H84.3414V96.5579H88.4345V92.4648Z" fill="black"/>
<path d="M96.5586 92.4648H92.4656V96.5579H96.5586V92.4648Z" fill="black"/>
<path d="M104.683 92.4648H100.59V96.5579H104.683V92.4648Z" fill="black"/>
<path d="M108.745 92.4648H104.652V96.5579H108.745V92.4648Z" fill="black"/>
<path d="M116.869 92.4648H112.776V96.5579H116.869V92.4648Z" fill="black"/>
<path d="M120.931 92.4648H116.838V96.5579H120.931V92.4648Z" fill="black"/>
<path d="M7.19304 96.5273H3.09998V100.62H7.19304V96.5273Z" fill="black"/>
<path d="M31.5655 96.5273H27.4724V100.62H31.5655V96.5273Z" fill="black"/>
<path d="M39.6896 96.5273H35.5966V100.62H39.6896V96.5273Z" fill="black"/>
<path d="M43.7516 96.5273H39.6586V100.62H43.7516V96.5273Z" fill="black"/>
<path d="M47.8138 96.5273H43.7207V100.62H47.8138V96.5273Z" fill="black"/>
<path d="M51.8758 96.5273H47.7827V100.62H51.8758V96.5273Z" fill="black"/>
<path d="M68.1241 96.5273H64.031V100.62H68.1241V96.5273Z" fill="black"/>
<path d="M76.2482 96.5273H72.1552V100.62H76.2482V96.5273Z" fill="black"/>
<path d="M84.3724 96.5273H80.2793V100.62H84.3724V96.5273Z" fill="black"/>
<path d="M88.4345 96.5273H84.3414V100.62H88.4345V96.5273Z" fill="black"/>
<path d="M104.683 96.5273H100.59V100.62H104.683V96.5273Z" fill="black"/>
<path d="M120.931 96.5273H116.838V100.62H120.931V96.5273Z" fill="black"/>
<path d="M7.19304 100.59H3.09998V104.683H7.19304V100.59Z" fill="black"/>
<path d="M15.3172 100.59H11.2241V104.683H15.3172V100.59Z" fill="black"/>
<path d="M19.3793 100.59H15.2863V104.683H19.3793V100.59Z" fill="black"/>
<path d="M23.4413 100.59H19.3483V104.683H23.4413V100.59Z" fill="black"/>
<path d="M31.5655 100.59H27.4724V104.683H31.5655V100.59Z" fill="black"/>
<path d="M39.6896 100.59H35.5966V104.683H39.6896V100.59Z" fill="black"/>
<path d="M47.8138 100.59H43.7207V104.683H47.8138V100.59Z" fill="black"/>
<path d="M55.9379 100.59H51.8448V104.683H55.9379V100.59Z" fill="black"/>
<path d="M72.1862 100.59H68.0931V104.683H72.1862V100.59Z" fill="black"/>
<path d="M76.2482 100.59H72.1552V104.683H76.2482V100.59Z" fill="black"/>
<path d="M88.4345 100.59H84.3414V104.683H88.4345V100.59Z" fill="black"/>
<path d="M92.4965 100.59H88.4034V104.683H92.4965V100.59Z" fill="black"/>
<path d="M96.5586 100.59H92.4656V104.683H96.5586V100.59Z" fill="black"/>
<path d="M100.621 100.59H96.5276V104.683H100.621V100.59Z" fill="black"/>
<path d="M104.683 100.59H100.59V104.683H104.683V100.59Z" fill="black"/>
<path d="M108.745 100.59H104.652V104.683H108.745V100.59Z" fill="black"/>
<path d="M116.869 100.59H112.776V104.683H116.869V100.59Z" fill="black"/>
<path d="M120.931 100.59H116.838V104.683H120.931V100.59Z" fill="black"/>
<path d="M7.19304 104.652H3.09998V108.745H7.19304V104.652Z" fill="black"/>
<path d="M15.3172 104.652H11.2241V108.745H15.3172V104.652Z" fill="black"/>
<path d="M19.3793 104.652H15.2863V108.745H19.3793V104.652Z" fill="black"/>
<path d="M23.4413 104.652H19.3483V108.745H23.4413V104.652Z" fill="black"/>
<path d="M31.5655 104.652H27.4724V108.745H31.5655V104.652Z" fill="black"/>
<path d="M51.8758 104.652H47.7827V108.745H51.8758V104.652Z" fill="black"/>
<path d="M55.9379 104.652H51.8448V108.745H55.9379V104.652Z" fill="black"/>
<path d="M59.9999 104.652H55.9069V108.745H59.9999V104.652Z" fill="black"/>
<path d="M72.1862 104.652H68.0931V108.745H72.1862V104.652Z" fill="black"/>
<path d="M76.2482 104.652H72.1552V108.745H76.2482V104.652Z" fill="black"/>
<path d="M104.683 104.652H100.59V108.745H104.683V104.652Z" fill="black"/>
<path d="M116.869 104.652H112.776V108.745H116.869V104.652Z" fill="black"/>
<path d="M120.931 104.652H116.838V108.745H120.931V104.652Z" fill="black"/>
<path d="M7.19304 108.713H3.09998V112.806H7.19304V108.713Z" fill="black"/>
<path d="M15.3172 108.713H11.2241V112.806H15.3172V108.713Z" fill="black"/>
<path d="M19.3793 108.713H15.2863V112.806H19.3793V108.713Z" fill="black"/>
<path d="M23.4413 108.713H19.3483V112.806H23.4413V108.713Z" fill="black"/>
<path d="M31.5655 108.713H27.4724V112.806H31.5655V108.713Z" fill="black"/>
<path d="M39.6896 108.713H35.5966V112.806H39.6896V108.713Z" fill="black"/>
<path d="M51.8758 108.713H47.7827V112.806H51.8758V108.713Z" fill="black"/>
<path d="M55.9379 108.713H51.8448V112.806H55.9379V108.713Z" fill="black"/>
<path d="M64.0621 108.713H59.969V112.806H64.0621V108.713Z" fill="black"/>
<path d="M72.1862 108.713H68.0931V112.806H72.1862V108.713Z" fill="black"/>
<path d="M84.3724 108.713H80.2793V112.806H84.3724V108.713Z" fill="black"/>
<path d="M88.4345 108.713H84.3414V112.806H88.4345V108.713Z" fill="black"/>
<path d="M100.621 108.713H96.5276V112.806H100.621V108.713Z" fill="black"/>
<path d="M104.683 108.713H100.59V112.806H104.683V108.713Z" fill="black"/>
<path d="M108.745 108.713H104.652V112.806H108.745V108.713Z" fill="black"/>
<path d="M120.931 108.713H116.838V112.806H120.931V108.713Z" fill="black"/>
<path d="M7.19304 112.775H3.09998V116.868H7.19304V112.775Z" fill="black"/>
<path d="M31.5655 112.775H27.4724V116.868H31.5655V112.775Z" fill="black"/>
<path d="M39.6896 112.775H35.5966V116.868H39.6896V112.775Z" fill="black"/>
<path d="M55.9379 112.775H51.8448V116.868H55.9379V112.775Z" fill="black"/>
<path d="M59.9999 112.775H55.9069V116.868H59.9999V112.775Z" fill="black"/>
<path d="M64.0621 112.775H59.969V116.868H64.0621V112.775Z" fill="black"/>
<path d="M76.2482 112.775H72.1552V116.868H76.2482V112.775Z" fill="black"/>
<path d="M80.3104 112.775H76.2173V116.868H80.3104V112.775Z" fill="black"/>
<path d="M84.3724 112.775H80.2793V116.868H84.3724V112.775Z" fill="black"/>
<path d="M88.4345 112.775H84.3414V116.868H88.4345V112.775Z" fill="black"/>
<path d="M96.5586 112.775H92.4656V116.868H96.5586V112.775Z" fill="black"/>
<path d="M104.683 112.775H100.59V116.868H104.683V112.775Z" fill="black"/>
<path d="M116.869 112.775H112.776V116.868H116.869V112.775Z" fill="black"/>
<path d="M7.19304 116.838H3.09998V120.931H7.19304V116.838Z" fill="black"/>
<path d="M11.2552 116.838H7.16211V120.931H11.2552V116.838Z" fill="black"/>
<path d="M15.3172 116.838H11.2241V120.931H15.3172V116.838Z" fill="black"/>
<path d="M19.3793 116.838H15.2863V120.931H19.3793V116.838Z" fill="black"/>
<path d="M23.4413 116.838H19.3483V120.931H23.4413V116.838Z" fill="black"/>
<path d="M27.5035 116.838H23.4104V120.931H27.5035V116.838Z" fill="black"/>
<path d="M31.5655 116.838H27.4724V120.931H31.5655V116.838Z" fill="black"/>
<path d="M39.6896 116.838H35.5966V120.931H39.6896V116.838Z" fill="black"/>
<path d="M43.7516 116.838H39.6586V120.931H43.7516V116.838Z" fill="black"/>
<path d="M47.8138 116.838H43.7207V120.931H47.8138V116.838Z" fill="black"/>
<path d="M51.8758 116.838H47.7827V120.931H51.8758V116.838Z" fill="black"/>
<path d="M64.0621 116.838H59.969V120.931H64.0621V116.838Z" fill="black"/>
<path d="M76.2482 116.838H72.1552V120.931H76.2482V116.838Z" fill="black"/>
<path d="M84.3724 116.838H80.2793V120.931H84.3724V116.838Z" fill="black"/>
<path d="M88.4345 116.838H84.3414V120.931H88.4345V116.838Z" fill="black"/>
<path d="M100.621 116.838H96.5276V120.931H100.621V116.838Z" fill="black"/>
<path d="M104.683 116.838H100.59V120.931H104.683V116.838Z" fill="black"/>
<path d="M108.745 116.838H104.652V120.931H108.745V116.838Z" fill="black"/>
<path d="M116.869 116.838H112.776V120.931H116.869V116.838Z" fill="black"/>
<path d="M120.931 116.838H116.838V120.931H120.931V116.838Z" fill="black"/>
</g>
</g>
<defs>
<clipPath id="clip0_171_2741">
<rect width="124" height="124" fill="white"/>
</clipPath>
<clipPath id="clip1_171_2741">
<rect width="124" height="124" fill="white"/>
</clipPath>
</defs>
</svg>
