<svg width="12" height="16" viewBox="0 0 12 16" fill="none" xmlns="http://www.w3.org/2000/svg">
<g clip-path="url(#clip0_188_4160)">
<path d="M11.4366 9.13829C11.3375 9.22057 11.2227 9.28914 11.1079 9.34857L3.34442 15.5474C2.5879 16.1509 1.3566 16.1509 0.600077 15.5474C-0.156446 14.944 -0.156446 13.9611 0.600076 13.3577L7.28355 8.01829L0.563554 2.65143C-0.192969 2.048 -0.192969 1.06514 0.563553 0.461715C0.944423 0.16 1.44007 0.0091438 1.93573 0.00914376C2.43138 0.00914371 2.92703 0.16 3.3079 0.461715L11.1079 6.68343C11.2227 6.74286 11.3375 6.81143 11.4366 6.89371C11.8227 7.2 12.0105 7.60686 12.0001 8.01371C12.0105 8.42057 11.8227 8.82743 11.4366 9.13829Z" fill="#DFDFDF"/>
</g>
<defs>
<clipPath id="clip0_188_4160">
<rect width="12" height="16" fill="white" transform="translate(12 16) rotate(180)"/>
</clipPath>
</defs>
</svg>
