<svg width="24" height="50" viewBox="0 0 24 50" fill="none" xmlns="http://www.w3.org/2000/svg">
<path d="M9.08333 18.291C8.76117 18.291 8.5 18.5522 8.5 18.8743C8.5 19.1965 8.76117 19.4577 9.08333 19.4577H14.9167C15.2388 19.4577 15.5 19.1965 15.5 18.8743C15.5 18.5522 15.2388 18.291 14.9167 18.291H9.08333Z" fill="#2E3093"/>
<path fill-rule="evenodd" clip-rule="evenodd" d="M14.5302 0.878395C13.0467 -0.292798 10.9532 -0.292798 9.4697 0.878395L1.88637 6.86524C0.905514 7.6396 0.333252 8.82048 0.333252 10.0702V19.4574C0.333252 21.7126 2.16142 23.5407 4.41659 23.5407H19.5833C21.8384 23.5407 23.6666 21.7126 23.6666 19.4574V10.0702C23.6666 8.82048 23.0943 7.6396 22.1135 6.86524L14.5302 0.878395ZM10.1926 1.79409C11.2523 0.957518 12.7475 0.957518 13.8072 1.79409L21.3905 7.78093C22.0911 8.33405 22.4999 9.17754 22.4999 10.0702V19.4574C22.4999 21.0682 21.1941 22.3741 19.5833 22.3741H4.41659C2.80576 22.3741 1.49992 21.0682 1.49992 19.4574V10.0702C1.49992 9.17754 1.90867 8.33405 2.60929 7.78093L10.1926 1.79409Z" fill="#2E3093"/>
<path d="M16.7041 44.8857H8.24121V41.3447H16.7041V44.8857ZM9.52637 43.8877H15.4463V42.3428H9.52637V43.8877ZM17.4424 34.7549H7.47559V33.7568H11.8369V32.6221H13.1357V33.7568H17.4424V34.7549ZM12.4795 35.1924C13.7829 35.1924 14.7786 35.3405 15.4668 35.6367C16.1549 35.9284 16.499 36.359 16.499 36.9287C16.499 37.4482 16.2119 37.8538 15.6377 38.1455C15.0635 38.4326 14.2295 38.6012 13.1357 38.6514V39.4854H18.0713V40.5107H6.90137V39.4854H11.8369V38.6514C10.7432 38.6012 9.90462 38.4326 9.32129 38.1455C8.74251 37.8538 8.4554 37.4482 8.45996 36.9287C8.4554 36.359 8.79948 35.9284 9.49219 35.6367C10.1849 35.3405 11.1807 35.1924 12.4795 35.1924ZM12.4795 36.0811C10.7204 36.0947 9.84082 36.3773 9.84082 36.9287C9.84082 37.2021 10.0664 37.4118 10.5176 37.5576C10.9733 37.7035 11.6273 37.7764 12.4795 37.7764C13.3363 37.7764 13.9902 37.7035 14.4414 37.5576C14.8926 37.4118 15.1182 37.2021 15.1182 36.9287C15.1182 36.3773 14.2386 36.0947 12.4795 36.0811Z" fill="#2E3093"/>
</svg>
